<mxfile host="app.diagrams.net" modified="2022-11-18T03:01:21.168Z" agent="5.0 (Windows NT 10.0; Win64; x64) AppleWebKit/537.36 (KHTML, like Gecko) Chrome/107.0.0.0 Safari/537.36" etag="oaeJRla4yuUat4NvJA2h" version="20.5.3" type="github">
  <diagram id="C5RBs43oDa-KdzZeNtuy" name="Page-1">
    <mxGraphModel dx="2249" dy="1963" grid="1" gridSize="10" guides="1" tooltips="1" connect="1" arrows="1" fold="1" page="1" pageScale="1" pageWidth="827" pageHeight="1169" math="0" shadow="0">
      <root>
        <mxCell id="WIyWlLk6GJQsqaUBKTNV-0" />
        <mxCell id="WIyWlLk6GJQsqaUBKTNV-1" parent="WIyWlLk6GJQsqaUBKTNV-0" />
        <mxCell id="Kmki1UszGiRmCnC_oXsn-11" value="" style="edgeStyle=orthogonalEdgeStyle;rounded=0;orthogonalLoop=1;jettySize=auto;html=1;" edge="1" parent="WIyWlLk6GJQsqaUBKTNV-1" source="Kmki1UszGiRmCnC_oXsn-3" target="Kmki1UszGiRmCnC_oXsn-10">
          <mxGeometry relative="1" as="geometry" />
        </mxCell>
        <mxCell id="Kmki1UszGiRmCnC_oXsn-3" value="经办人" style="shape=umlActor;verticalLabelPosition=bottom;verticalAlign=top;html=1;outlineConnect=0;" vertex="1" parent="WIyWlLk6GJQsqaUBKTNV-1">
          <mxGeometry x="-230" y="40" width="30" height="60" as="geometry" />
        </mxCell>
        <mxCell id="Kmki1UszGiRmCnC_oXsn-51" value="" style="edgeStyle=orthogonalEdgeStyle;rounded=0;orthogonalLoop=1;jettySize=auto;html=1;" edge="1" parent="WIyWlLk6GJQsqaUBKTNV-1" source="Kmki1UszGiRmCnC_oXsn-10" target="Kmki1UszGiRmCnC_oXsn-50">
          <mxGeometry relative="1" as="geometry" />
        </mxCell>
        <mxCell id="Kmki1UszGiRmCnC_oXsn-10" value="操作验机（质检）" style="rounded=1;whiteSpace=wrap;html=1;verticalAlign=middle;" vertex="1" parent="WIyWlLk6GJQsqaUBKTNV-1">
          <mxGeometry x="140" y="40" width="120" height="60" as="geometry" />
        </mxCell>
        <mxCell id="Kmki1UszGiRmCnC_oXsn-34" value="" style="edgeStyle=orthogonalEdgeStyle;rounded=0;orthogonalLoop=1;jettySize=auto;html=1;" edge="1" parent="WIyWlLk6GJQsqaUBKTNV-1" source="Kmki1UszGiRmCnC_oXsn-31" target="Kmki1UszGiRmCnC_oXsn-33">
          <mxGeometry relative="1" as="geometry" />
        </mxCell>
        <mxCell id="Kmki1UszGiRmCnC_oXsn-38" value="" style="edgeStyle=orthogonalEdgeStyle;rounded=0;orthogonalLoop=1;jettySize=auto;html=1;" edge="1" parent="WIyWlLk6GJQsqaUBKTNV-1" source="Kmki1UszGiRmCnC_oXsn-31" target="Kmki1UszGiRmCnC_oXsn-37">
          <mxGeometry relative="1" as="geometry" />
        </mxCell>
        <mxCell id="Kmki1UszGiRmCnC_oXsn-40" value="" style="edgeStyle=orthogonalEdgeStyle;rounded=0;orthogonalLoop=1;jettySize=auto;html=1;" edge="1" parent="WIyWlLk6GJQsqaUBKTNV-1" source="Kmki1UszGiRmCnC_oXsn-31" target="Kmki1UszGiRmCnC_oXsn-39">
          <mxGeometry relative="1" as="geometry" />
        </mxCell>
        <mxCell id="Kmki1UszGiRmCnC_oXsn-31" value="验机方式选择" style="rhombus;whiteSpace=wrap;html=1;rounded=1;" vertex="1" parent="WIyWlLk6GJQsqaUBKTNV-1">
          <mxGeometry x="-100" y="210" width="100" height="100" as="geometry" />
        </mxCell>
        <mxCell id="Kmki1UszGiRmCnC_oXsn-64" value="" style="edgeStyle=orthogonalEdgeStyle;rounded=0;orthogonalLoop=1;jettySize=auto;html=1;" edge="1" parent="WIyWlLk6GJQsqaUBKTNV-1" source="Kmki1UszGiRmCnC_oXsn-33" target="Kmki1UszGiRmCnC_oXsn-63">
          <mxGeometry relative="1" as="geometry" />
        </mxCell>
        <mxCell id="Kmki1UszGiRmCnC_oXsn-33" value="一根线验机" style="whiteSpace=wrap;html=1;rounded=1;" vertex="1" parent="WIyWlLk6GJQsqaUBKTNV-1">
          <mxGeometry x="70" y="360" width="120" height="60" as="geometry" />
        </mxCell>
        <mxCell id="Kmki1UszGiRmCnC_oXsn-43" style="edgeStyle=orthogonalEdgeStyle;rounded=0;orthogonalLoop=1;jettySize=auto;html=1;exitX=0.5;exitY=1;exitDx=0;exitDy=0;" edge="1" parent="WIyWlLk6GJQsqaUBKTNV-1" source="Kmki1UszGiRmCnC_oXsn-37">
          <mxGeometry relative="1" as="geometry">
            <mxPoint x="-230" y="400" as="targetPoint" />
          </mxGeometry>
        </mxCell>
        <mxCell id="Kmki1UszGiRmCnC_oXsn-62" style="edgeStyle=orthogonalEdgeStyle;rounded=0;orthogonalLoop=1;jettySize=auto;html=1;exitX=0.5;exitY=1;exitDx=0;exitDy=0;" edge="1" parent="WIyWlLk6GJQsqaUBKTNV-1" source="Kmki1UszGiRmCnC_oXsn-37" target="Kmki1UszGiRmCnC_oXsn-60">
          <mxGeometry relative="1" as="geometry" />
        </mxCell>
        <mxCell id="Kmki1UszGiRmCnC_oXsn-37" value="IMEI验机" style="whiteSpace=wrap;html=1;rounded=1;" vertex="1" parent="WIyWlLk6GJQsqaUBKTNV-1">
          <mxGeometry x="-290" y="360" width="120" height="60" as="geometry" />
        </mxCell>
        <mxCell id="Kmki1UszGiRmCnC_oXsn-75" value="" style="edgeStyle=orthogonalEdgeStyle;rounded=0;orthogonalLoop=1;jettySize=auto;html=1;fontSize=12;fontColor=#330000;" edge="1" parent="WIyWlLk6GJQsqaUBKTNV-1" source="Kmki1UszGiRmCnC_oXsn-39" target="Kmki1UszGiRmCnC_oXsn-74">
          <mxGeometry relative="1" as="geometry" />
        </mxCell>
        <mxCell id="Kmki1UszGiRmCnC_oXsn-39" value="人工点选验机" style="whiteSpace=wrap;html=1;rounded=1;" vertex="1" parent="WIyWlLk6GJQsqaUBKTNV-1">
          <mxGeometry x="-110" y="360" width="120" height="60" as="geometry" />
        </mxCell>
        <mxCell id="Kmki1UszGiRmCnC_oXsn-52" style="edgeStyle=orthogonalEdgeStyle;rounded=0;orthogonalLoop=1;jettySize=auto;html=1;exitX=0;exitY=0.5;exitDx=0;exitDy=0;entryX=0.5;entryY=0;entryDx=0;entryDy=0;" edge="1" parent="WIyWlLk6GJQsqaUBKTNV-1" source="Kmki1UszGiRmCnC_oXsn-50" target="Kmki1UszGiRmCnC_oXsn-31">
          <mxGeometry relative="1" as="geometry" />
        </mxCell>
        <mxCell id="Kmki1UszGiRmCnC_oXsn-55" value="" style="edgeStyle=orthogonalEdgeStyle;rounded=0;orthogonalLoop=1;jettySize=auto;html=1;" edge="1" parent="WIyWlLk6GJQsqaUBKTNV-1" source="Kmki1UszGiRmCnC_oXsn-50" target="Kmki1UszGiRmCnC_oXsn-54">
          <mxGeometry relative="1" as="geometry" />
        </mxCell>
        <mxCell id="Kmki1UszGiRmCnC_oXsn-50" value="验机品类" style="rhombus;whiteSpace=wrap;html=1;rounded=1;" vertex="1" parent="WIyWlLk6GJQsqaUBKTNV-1">
          <mxGeometry x="140" y="140" width="120" height="90" as="geometry" />
        </mxCell>
        <mxCell id="Kmki1UszGiRmCnC_oXsn-53" value="手机品类" style="text;html=1;align=center;verticalAlign=middle;resizable=0;points=[];autosize=1;strokeColor=none;fillColor=none;" vertex="1" parent="WIyWlLk6GJQsqaUBKTNV-1">
          <mxGeometry x="20" y="140" width="70" height="30" as="geometry" />
        </mxCell>
        <mxCell id="Kmki1UszGiRmCnC_oXsn-88" style="edgeStyle=orthogonalEdgeStyle;rounded=0;orthogonalLoop=1;jettySize=auto;html=1;exitX=0.5;exitY=1;exitDx=0;exitDy=0;fontSize=12;fontColor=#FF7E3D;" edge="1" parent="WIyWlLk6GJQsqaUBKTNV-1" source="Kmki1UszGiRmCnC_oXsn-54">
          <mxGeometry relative="1" as="geometry">
            <mxPoint x="474" y="410" as="targetPoint" />
          </mxGeometry>
        </mxCell>
        <mxCell id="Kmki1UszGiRmCnC_oXsn-90" value="" style="edgeStyle=orthogonalEdgeStyle;rounded=0;orthogonalLoop=1;jettySize=auto;html=1;fontSize=12;fontColor=#FF7E3D;" edge="1" parent="WIyWlLk6GJQsqaUBKTNV-1" source="Kmki1UszGiRmCnC_oXsn-54" target="Kmki1UszGiRmCnC_oXsn-89">
          <mxGeometry relative="1" as="geometry" />
        </mxCell>
        <mxCell id="Kmki1UszGiRmCnC_oXsn-54" value="人工点选验机" style="whiteSpace=wrap;html=1;rounded=1;" vertex="1" parent="WIyWlLk6GJQsqaUBKTNV-1">
          <mxGeometry x="414" y="360" width="120" height="60" as="geometry" />
        </mxCell>
        <mxCell id="Kmki1UszGiRmCnC_oXsn-56" value="非手机品类" style="text;html=1;align=center;verticalAlign=middle;resizable=0;points=[];autosize=1;strokeColor=none;fillColor=none;" vertex="1" parent="WIyWlLk6GJQsqaUBKTNV-1">
          <mxGeometry x="295" y="140" width="80" height="30" as="geometry" />
        </mxCell>
        <mxCell id="Kmki1UszGiRmCnC_oXsn-79" style="edgeStyle=orthogonalEdgeStyle;rounded=0;orthogonalLoop=1;jettySize=auto;html=1;exitX=0.5;exitY=1;exitDx=0;exitDy=0;fontSize=12;fontColor=#FF7E3D;" edge="1" parent="WIyWlLk6GJQsqaUBKTNV-1" source="Kmki1UszGiRmCnC_oXsn-60" target="Kmki1UszGiRmCnC_oXsn-68">
          <mxGeometry relative="1" as="geometry" />
        </mxCell>
        <mxCell id="Kmki1UszGiRmCnC_oXsn-60" value="&lt;b style=&quot;font-size: 12px; text-align: left; background-color: initial;&quot;&gt;&lt;font color=&quot;#ff7e3d&quot; style=&quot;font-size: 12px;&quot;&gt;基础信息&lt;/font&gt;&lt;/b&gt;" style="shape=parallelogram;perimeter=parallelogramPerimeter;whiteSpace=wrap;html=1;fixedSize=1;rounded=1;fontSize=12;" vertex="1" parent="WIyWlLk6GJQsqaUBKTNV-1">
          <mxGeometry x="-300" y="510" width="140" height="85" as="geometry" />
        </mxCell>
        <mxCell id="Kmki1UszGiRmCnC_oXsn-106" style="edgeStyle=orthogonalEdgeStyle;rounded=0;orthogonalLoop=1;jettySize=auto;html=1;exitX=0.5;exitY=1;exitDx=0;exitDy=0;fontSize=12;fontColor=#330000;" edge="1" parent="WIyWlLk6GJQsqaUBKTNV-1" source="Kmki1UszGiRmCnC_oXsn-63" target="Kmki1UszGiRmCnC_oXsn-68">
          <mxGeometry relative="1" as="geometry" />
        </mxCell>
        <mxCell id="Kmki1UszGiRmCnC_oXsn-63" value="&lt;h4 style=&quot;text-align: left; font-size: 12px;&quot;&gt;&lt;span style=&quot;font-size: 12px; font-weight: normal;&quot;&gt;&lt;font style=&quot;font-size: 12px;&quot; color=&quot;#ff7e3d&quot;&gt;基础信息 &lt;/font&gt;&lt;font color=&quot;#330000&quot; style=&quot;font-size: 12px;&quot;&gt;+&amp;nbsp;拆修项&lt;/font&gt;&lt;font style=&quot;font-size: 12px;&quot; color=&quot;#ff7e3d&quot;&gt;&amp;nbsp;&lt;/font&gt;&lt;/span&gt;&lt;/h4&gt;" style="shape=parallelogram;perimeter=parallelogramPerimeter;whiteSpace=wrap;html=1;fixedSize=1;rounded=1;fontSize=12;" vertex="1" parent="WIyWlLk6GJQsqaUBKTNV-1">
          <mxGeometry x="60" y="510" width="140" height="85" as="geometry" />
        </mxCell>
        <mxCell id="Kmki1UszGiRmCnC_oXsn-65" value="&lt;h4 style=&quot;&quot;&gt;&lt;b style=&quot;&quot;&gt;&lt;font color=&quot;#ff7e3d&quot; style=&quot;font-size: 15px;&quot;&gt;基础信息：&lt;/font&gt;&lt;font color=&quot;#330000&quot; style=&quot;font-size: 13px;&quot;&gt;包含品牌、机型、部分/全部规格等;&lt;/font&gt;&lt;/b&gt;&lt;/h4&gt;&lt;div style=&quot;&quot;&gt;&lt;b style=&quot;&quot;&gt;&lt;font color=&quot;#ff7e3d&quot; style=&quot;font-size: 15px;&quot;&gt;手机品类与非手机品类区别：&lt;/font&gt;&lt;/b&gt;&lt;/div&gt;&lt;div style=&quot;&quot;&gt;&lt;b style=&quot;&quot;&gt;&lt;font color=&quot;#330000&quot; style=&quot;font-size: 14px;&quot;&gt;&amp;nbsp; &amp;nbsp; &amp;nbsp; &amp;nbsp; &amp;nbsp; &amp;nbsp; &amp;nbsp; &amp;nbsp; &amp;nbsp; &amp;nbsp; 1.&amp;nbsp;有快速验机功能，&amp;nbsp;&lt;/font&gt;&lt;/b&gt;&lt;/div&gt;&lt;div style=&quot;&quot;&gt;&lt;b style=&quot;&quot;&gt;&lt;font color=&quot;#330000&quot; style=&quot;font-size: 14px;&quot;&gt;&amp;nbsp; &amp;nbsp; &amp;nbsp; &amp;nbsp; &amp;nbsp; &amp;nbsp; &amp;nbsp; &amp;nbsp; &amp;nbsp; &amp;nbsp; 2.&amp;nbsp;有硬件拆修相关项值分组 （功能情况下的维修项独立出的）&lt;/font&gt;&lt;/b&gt;&lt;/div&gt;&lt;div style=&quot;&quot;&gt;&lt;b style=&quot;&quot;&gt;&lt;font color=&quot;#330000&quot; style=&quot;font-size: 14px;&quot;&gt;&lt;br&gt;&lt;/font&gt;&lt;/b&gt;&lt;/div&gt;&lt;span style=&quot;text-align: center;&quot;&gt;&lt;b style=&quot;&quot;&gt;&lt;font color=&quot;#ff7e3d&quot; style=&quot;font-size: 15px;&quot;&gt;功能情况和成色情况：&lt;br&gt;&lt;/font&gt;&lt;font color=&quot;#330000&quot; style=&quot;font-size: 14px;&quot;&gt;&amp;nbsp; &amp;nbsp; &amp;nbsp; &amp;nbsp; &amp;nbsp; &amp;nbsp; &amp;nbsp; &amp;nbsp; &amp;nbsp; &amp;nbsp; 从发布映射后台取到的各种项值，有必选和选填项，&lt;br&gt;&amp;nbsp; &amp;nbsp; &amp;nbsp; &amp;nbsp; &amp;nbsp; &amp;nbsp; 进行自定义分组后区分出的功能情况和成色情况。&lt;/font&gt;&lt;br&gt;&lt;font color=&quot;#ff7e3d&quot;&gt;&amp;nbsp;&lt;/font&gt;&lt;br&gt;&lt;/b&gt;&lt;/span&gt;&lt;div style=&quot;&quot;&gt;&lt;b style=&quot;&quot;&gt;&lt;font color=&quot;#330000&quot; style=&quot;font-size: 14px;&quot;&gt;&amp;nbsp;&amp;nbsp; &amp;nbsp; &amp;nbsp; &amp;nbsp; &amp;nbsp; &amp;nbsp; &amp;nbsp; &amp;nbsp; &amp;nbsp;&amp;nbsp;&lt;/font&gt;&lt;/b&gt;&lt;/div&gt;" style="text;html=1;align=left;verticalAlign=middle;resizable=0;points=[];autosize=1;strokeColor=none;fillColor=none;fontSize=15;" vertex="1" parent="WIyWlLk6GJQsqaUBKTNV-1">
          <mxGeometry x="347" y="-90" width="480" height="230" as="geometry" />
        </mxCell>
        <mxCell id="Kmki1UszGiRmCnC_oXsn-110" style="edgeStyle=orthogonalEdgeStyle;rounded=0;orthogonalLoop=1;jettySize=auto;html=1;exitX=1;exitY=0.5;exitDx=0;exitDy=0;fontSize=14;fontColor=#330000;" edge="1" parent="WIyWlLk6GJQsqaUBKTNV-1" source="Kmki1UszGiRmCnC_oXsn-68" target="Kmki1UszGiRmCnC_oXsn-107">
          <mxGeometry relative="1" as="geometry" />
        </mxCell>
        <mxCell id="Kmki1UszGiRmCnC_oXsn-114" value="" style="edgeStyle=orthogonalEdgeStyle;rounded=0;orthogonalLoop=1;jettySize=auto;html=1;fontSize=14;fontColor=#330000;" edge="1" parent="WIyWlLk6GJQsqaUBKTNV-1" source="Kmki1UszGiRmCnC_oXsn-68" target="Kmki1UszGiRmCnC_oXsn-113">
          <mxGeometry relative="1" as="geometry" />
        </mxCell>
        <mxCell id="Kmki1UszGiRmCnC_oXsn-68" value="小程序验机&lt;br&gt;(验证使用功能)" style="rhombus;whiteSpace=wrap;html=1;rounded=1;" vertex="1" parent="WIyWlLk6GJQsqaUBKTNV-1">
          <mxGeometry x="-125" y="690" width="150" height="130" as="geometry" />
        </mxCell>
        <mxCell id="Kmki1UszGiRmCnC_oXsn-76" value="" style="edgeStyle=orthogonalEdgeStyle;rounded=0;orthogonalLoop=1;jettySize=auto;html=1;fontSize=12;fontColor=#FF7E3D;" edge="1" parent="WIyWlLk6GJQsqaUBKTNV-1" source="Kmki1UszGiRmCnC_oXsn-74" target="Kmki1UszGiRmCnC_oXsn-68">
          <mxGeometry relative="1" as="geometry" />
        </mxCell>
        <mxCell id="Kmki1UszGiRmCnC_oXsn-74" value="&lt;font color=&quot;#ff7e3d&quot;&gt;基础信息&lt;/font&gt; +&amp;nbsp;成色情况" style="shape=parallelogram;perimeter=parallelogramPerimeter;whiteSpace=wrap;html=1;fixedSize=1;rounded=1;" vertex="1" parent="WIyWlLk6GJQsqaUBKTNV-1">
          <mxGeometry x="-122.5" y="510" width="145" height="85" as="geometry" />
        </mxCell>
        <mxCell id="Kmki1UszGiRmCnC_oXsn-120" value="" style="edgeStyle=orthogonalEdgeStyle;rounded=0;orthogonalLoop=1;jettySize=auto;html=1;fontSize=14;fontColor=#330000;" edge="1" parent="WIyWlLk6GJQsqaUBKTNV-1" source="Kmki1UszGiRmCnC_oXsn-89" target="Kmki1UszGiRmCnC_oXsn-119">
          <mxGeometry relative="1" as="geometry" />
        </mxCell>
        <mxCell id="Kmki1UszGiRmCnC_oXsn-89" value="&lt;font color=&quot;#ff7e3d&quot;&gt;基础信息 &lt;/font&gt;+&amp;nbsp;功能情况 +&amp;nbsp;成色情况" style="shape=parallelogram;perimeter=parallelogramPerimeter;whiteSpace=wrap;html=1;fixedSize=1;rounded=1;align=center;verticalAlign=middle;" vertex="1" parent="WIyWlLk6GJQsqaUBKTNV-1">
          <mxGeometry x="392" y="920" width="164" height="90" as="geometry" />
        </mxCell>
        <mxCell id="Kmki1UszGiRmCnC_oXsn-99" value="完成最终报告数据，用于后续流程" style="ellipse;whiteSpace=wrap;html=1;rounded=1;" vertex="1" parent="WIyWlLk6GJQsqaUBKTNV-1">
          <mxGeometry x="396" y="1169" width="156" height="95" as="geometry" />
        </mxCell>
        <mxCell id="Kmki1UszGiRmCnC_oXsn-116" style="edgeStyle=orthogonalEdgeStyle;rounded=0;orthogonalLoop=1;jettySize=auto;html=1;exitX=1;exitY=0.5;exitDx=0;exitDy=0;entryX=0.5;entryY=0;entryDx=0;entryDy=0;fontSize=14;fontColor=#330000;" edge="1" parent="WIyWlLk6GJQsqaUBKTNV-1" source="Kmki1UszGiRmCnC_oXsn-107" target="Kmki1UszGiRmCnC_oXsn-89">
          <mxGeometry relative="1" as="geometry" />
        </mxCell>
        <mxCell id="Kmki1UszGiRmCnC_oXsn-107" value="扫码进入小程序验机，输出验机项" style="rounded=1;whiteSpace=wrap;html=1;" vertex="1" parent="WIyWlLk6GJQsqaUBKTNV-1">
          <mxGeometry x="160" y="725" width="120" height="60" as="geometry" />
        </mxCell>
        <mxCell id="Kmki1UszGiRmCnC_oXsn-115" style="edgeStyle=orthogonalEdgeStyle;rounded=0;orthogonalLoop=1;jettySize=auto;html=1;exitX=1;exitY=0.5;exitDx=0;exitDy=0;fontSize=14;fontColor=#330000;" edge="1" parent="WIyWlLk6GJQsqaUBKTNV-1" source="Kmki1UszGiRmCnC_oXsn-113" target="Kmki1UszGiRmCnC_oXsn-89">
          <mxGeometry relative="1" as="geometry" />
        </mxCell>
        <mxCell id="Kmki1UszGiRmCnC_oXsn-113" value="人工点选未检测出的项值" style="whiteSpace=wrap;html=1;rounded=1;" vertex="1" parent="WIyWlLk6GJQsqaUBKTNV-1">
          <mxGeometry x="-110" y="935" width="120" height="60" as="geometry" />
        </mxCell>
        <mxCell id="Kmki1UszGiRmCnC_oXsn-117" value="小程序验机" style="text;html=1;align=center;verticalAlign=middle;resizable=0;points=[];autosize=1;strokeColor=none;fillColor=none;fontSize=14;fontColor=#330000;" vertex="1" parent="WIyWlLk6GJQsqaUBKTNV-1">
          <mxGeometry x="50" y="725" width="90" height="30" as="geometry" />
        </mxCell>
        <mxCell id="Kmki1UszGiRmCnC_oXsn-118" value="非小程序验机" style="text;html=1;align=center;verticalAlign=middle;resizable=0;points=[];autosize=1;strokeColor=none;fillColor=none;fontSize=14;fontColor=#330000;" vertex="1" parent="WIyWlLk6GJQsqaUBKTNV-1">
          <mxGeometry x="-50" y="845" width="110" height="30" as="geometry" />
        </mxCell>
        <mxCell id="Kmki1UszGiRmCnC_oXsn-121" style="edgeStyle=orthogonalEdgeStyle;rounded=0;orthogonalLoop=1;jettySize=auto;html=1;exitX=0.5;exitY=1;exitDx=0;exitDy=0;fontSize=14;fontColor=#330000;" edge="1" parent="WIyWlLk6GJQsqaUBKTNV-1" source="Kmki1UszGiRmCnC_oXsn-119" target="Kmki1UszGiRmCnC_oXsn-99">
          <mxGeometry relative="1" as="geometry" />
        </mxCell>
        <mxCell id="Kmki1UszGiRmCnC_oXsn-119" value="补充图片和备注" style="whiteSpace=wrap;html=1;rounded=1;" vertex="1" parent="WIyWlLk6GJQsqaUBKTNV-1">
          <mxGeometry x="414" y="1060" width="120" height="60" as="geometry" />
        </mxCell>
      </root>
    </mxGraphModel>
  </diagram>
</mxfile>
